<svg width="246" height="90" xmlns="http://www.w3.org/2000/svg"><g fill="#1A1919" fill-rule="evenodd"><path d="M72.368 57.046c-.7.663-1.754.865-3.398.66l-2.52-3.494-1.222-1.694c1.997.445 4.185.447 5.615.095a10.344 10.344 0 0 1 1.022 1.335c.84 1.302 1.014 2.247 1.017 2.267l.083-.013c-.166.34-.363.623-.597.844zm-.005 6.344-1.416 1.15-5.448-7.38.015-.058-.078-.02-5.92-7.408-.6-.75-.066-.084.846-1.749.11.02c.17.035.339.07.507.107l2.381 3.301 1.796 2.49 7.873 10.381zm-13.527-8.789-2.255-1.078 1.84-3.8.064.08 5.452 6.823a44.764 44.764 0 0 1-5.101-2.025zm-5.205-2.19L68.302 24.06l1.488.713-14.73 29.87a15.614 15.614 0 0 1-1.429-2.232zm6.13 10.885c.572 2.884.682 5.684-.674 8.642.34-2.711.038-4.5-.67-6.311-.985-2.515-2.966-4.422-4.715-6.104-1.512-1.455-2.941-2.83-3.439-4.325.04-.347.294-1.934 1.714-4.545.069.315.175.66.328 1.039 1.132 2.624 2.659 4.3 4.006 5.778 1.575 1.729 2.935 3.222 3.45 5.826zm-11.066 4.458a4.448 4.448 0 0 0-2.28-1.339l4.409-8.587c.536.643 1.164 1.27 1.82 1.907l-3.95 8.019zm.28 2.993a3.568 3.568 0 0 1-3.565 3.564 3.569 3.569 0 0 1-3.564-3.564c0-.458.09-.895.248-1.297a3.562 3.562 0 0 1 2.753-2.218c.065-.01.129-.023.195-.03.12-.012.244-.02.368-.02.164 0 .325.016.483.037.073.01.146.02.218.034.879.176 1.64.678 2.157 1.372a3.567 3.567 0 0 1 .706 2.122zm-10.648-10.83c.672-.647 1.318-1.283 1.876-1.932l4.313 8.402a4.441 4.441 0 0 0-2.31 1.278l-3.879-7.748zm-5.582 5.71c-.71 1.811-.99 4.324-.653 6.31-1.513-3.486-1.264-5.757-.693-8.64.516-2.605 1.876-4.098 3.45-5.827 1.348-1.478 2.874-3.154 4.006-5.778.154-.379.26-.724.329-1.039 1.42 2.611 1.673 4.198 1.714 4.545-.498 1.495-1.928 2.87-3.44 4.325-1.747 1.682-3.73 3.589-4.713 6.104zM21.03 24.773l1.487-.713L37.37 52.71a16.277 16.277 0 0 1-1.55 2.295L21.031 24.773zm10.937 29.895c-2.222 1.037-4.527 1.816-5.938 2.253l6.128-7.511 2.021 4.204-2.211 1.054zM19.29 64.312l-1.457-1.207 3.587-4.544.03-.004-.005-.028 3.691-4.675 1.926-2.614 3.097-4.203c.269-.04.536-.077.804-.113l.77 1.603-1.263 1.55-11.18 14.235zm-.476-7.524a3.723 3.723 0 0 1-.618-.788 8.43 8.43 0 0 1 .413-2.207 8.87 8.87 0 0 1 .543-1.303c1.406.431 3.76.464 5.895-.01l-.506.688-.906 1.23-2.424 3.291a3.252 3.252 0 0 1-2.397-.9zm7.09-5.47c-2.076.716-4.845.798-6.265.348 1.042-1.56 2.833-3.093 5.928-3.79a58.493 58.493 0 0 1 3.35-.648l-3.013 4.09zm-8.516-1.096c.461-5.004 3.827-8.802 9.763-11.228l3.409 7.09a61.045 61.045 0 0 0-5.188.926c-5.516 1.245-7.26 5.044-7.811 7.334-.26-1.125-.322-2.508-.173-4.122zm20.65 1.129a24.47 24.47 0 0 1-.179.395l-1.881-3.565c.503-.081 1.503-.036 2.046.533l.02.02-.006.005c.087.134.172.267.254.397.21.532.125 1.274-.255 2.215zm17.28-4.045c-.763-.12-2.052-.012-2.823.796-.15.158-.295.358-.407.61-2.574 4.1-2.713 6.414-2.717 6.514l-.004.077.023.074c.18.582.471 1.134.838 1.669l-4.75 9.253h-.01l-4.66-9.076c.427-.59.764-1.2.963-1.846l.023-.074-.004-.077c-.005-.1-.143-2.413-2.717-6.514a2.143 2.143 0 0 0-.408-.61c-.881-.924-2.44-.933-3.115-.731l-.476-.902.205-.019c5.428-.466 9.76-.393 9.847-.391.078-.004 5.034-.215 10.53.411l.097.011-.435.825zm-2.195 4.045c-.38-.94-.464-1.683-.254-2.215.082-.13.167-.263.254-.397l-.006-.004.02-.021c.446-.468 1.201-.581 1.736-.562l-1.72 3.263-.03-.064zM30.82 37.76c1.815-.498 3.802-.9 5.957-1.201a63.36 63.36 0 0 1 5.137-.51 86.55 86.55 0 0 1 3.33-.14 59.141 59.141 0 0 1 3.29.02c1.352.047 2.632.14 3.836.274.41.045.809.096 1.202.15 2.502.345 4.67.857 6.532 1.453.065.02.125.042.19.063l-4.09 7.76-.108-.014a63.043 63.043 0 0 0-1.05-.117c-5.166-.531-9.642-.34-9.93-.326-.067-.002-4.38-.076-9.816.387-.152.012-.303.025-.457.04l-.216.02-4.102-7.773c.099-.029.196-.058.295-.085zm11.866-7.728.544-.738 2.1-2.851.553-.75 1.683-2.284 2.626 2.494-2.207 2.705-.58.71-2.099 2.573-.573.703-2.061 2.526c-1.37.071-2.692.173-3.961.309l3.975-5.397zm-8.173-11.481a1.987 1.987 0 0 1-.424-1.491 1.988 1.988 0 0 1 .768-1.347 1.987 1.987 0 0 1 1.51-.393c.54.08 1.014.367 1.334.81l7.085 9.557-2.129 2.89-8.144-10.026zm21.984-3.678c-2.235 1.568-3.125 2.703-4.975 4.758-.66.75-2.035 2.535-2.663 3.704l-.252-.237c1.126-4.866 5.381-7.148 7.89-8.225zm-6.841 9.212-.307-.289c1.14-2.759 5.015-7.117 7.952-9.126-1.51 3.263-5.13 7.89-7.645 9.415zm.703.662-.22-.207c1.048-.76 2.729-2.585 3.393-3.412 1.725-2.197 2.644-3.322 3.8-5.825-.795 2.688-2.628 7.936-6.973 9.444zM46.663 35.01a57.48 57.48 0 0 0-2.803.055l1.438-1.763 1.365 1.708zm5.013.231a53.203 53.203 0 0 0-3.865-.215L45.87 32.6l2.07-2.536 3.735 5.178zM64.394 51.36l-2.763-3.831c1.124.289 2.202.632 3.193 1.04 2.388.984 4.075 2.15 5.266 3.273-1.507.284-3.867.147-5.696-.482zm-.708-12.162c.85.395 1.6.798 2.256 1.188 4.491 2.675 7.243 6.407 7.55 10.239.14 1.76.104 3.172-.109 4.26-.714-1.704-2.726-4.871-8.222-7.135-1.334-.55-2.808-.986-4.331-1.332a40.716 40.716 0 0 0-.618-.136l-.114-.022 3.45-7.123.138.06zm10.69 11.356c-.37-4.607-3.902-9.174-10.298-12.155l-.142-.064 6.6-13.626a.194.194 0 0 0-.088-.257l-2.27-1.135a.193.193 0 0 0-.258.082l-7.208 13.675-.2-.067c-2.283-.738-4.834-1.3-7.649-1.635l-4.342-6.02 2.59-3.175a.487.487 0 0 0-.041-.661l-.185-.175c2.424-.95 4.233-2.901 5.806-6.233 1.255-2.66 1.732-5.042 1.752-5.142a.372.372 0 0 0-.463-.43c-.09.025-2.247.628-4.621 2.142-2.968 1.892-4.628 4.079-5.384 6.898l-.128-.122a.487.487 0 0 0-.728.064l-1.782 2.42-6.918-9.327a2.866 2.866 0 0 0-1.925-1.168 2.864 2.864 0 0 0-2.178.567 2.866 2.866 0 0 0-1.108 1.943c-.094.776.123 1.54.612 2.151l8.292 10.212-4.605 6.25c-2.594.326-4.96.795-7.099 1.394l-.304.089L22.9 23.4a.193.193 0 0 0-.257-.082l-2.27 1.135a.193.193 0 0 0-.088.257l6.484 13.49c-6.23 2.558-9.771 6.598-10.264 11.94-.32 3.465.256 5.921 1.71 7.302a4.117 4.117 0 0 0 2.363 1.106l-3.334 4.526a.175.175 0 0 0 .028.238l1.965 1.653a.176.176 0 0 0 .25-.024l5.55-6.804c.648-.18 3.467-.988 6.374-2.247.333-.144 2.57-1.14 3.18-1.42l.613 1.276c-.336.387-.674.758-1.01 1.127-1.594 1.751-3.1 3.405-3.665 6.251-1.195 6.036 1.347 9.497 1.456 9.641l.754-.459c-.007-.015-.872-2.005.83-6.356.843-2.15 2.458-3.81 4.088-5.386l3.947 7.887a4.418 4.418 0 0 0-.645 2.296 4.456 4.456 0 0 0 4.451 4.45 4.456 4.456 0 0 0 4.45-4.45 4.42 4.42 0 0 0-.575-2.183l4.03-8.182c1.693 1.63 3.402 3.334 4.276 5.568 1.702 4.35.838 6.34.83 6.356l.754.46c.11-.145 2.651-3.606 1.456-9.642-.563-2.846-2.07-4.5-3.665-6.251a45.555 45.555 0 0 1-1.297-1.466l.527-1.089c.732.344 2.741 1.296 3.102 1.47a44.08 44.08 0 0 0 5.624 2.07l5.636 7.052a.444.444 0 0 0 .3.165l.046.002a.445.445 0 0 0 .282-.101l1.579-1.3a.444.444 0 0 0 .077-.603L69.66 58.66c.133.007.269.011.407.011 1.004 0 2.093-.206 2.912-.981 1.249-1.183 1.693-3.45 1.397-7.135z"/><path d="M45.41 72.267a1.522 1.522 0 0 1-1.49-1.81c.068-.357.267-.666.54-.887.261-.211.589-.343.95-.343.838 0 1.52.682 1.52 1.52s-.682 1.52-1.52 1.52m.342-3.9a2.462 2.462 0 0 0-.342-.027 2.4 2.4 0 0 0-1.629.64 2.426 2.426 0 0 0-.556.763 2.39 2.39 0 0 0-.04 1.919 2.41 2.41 0 0 0 2.225 1.492 2.41 2.41 0 0 0 2.407-2.407c0-1.21-.9-2.213-2.065-2.38m-7.141-24.945a52.56 52.56 0 0 0-.488-.013c-.363-.003-.443-.072-.43-.384l.17-3.935c.01-.206.036-.791.077-1.525-.737.219-1.475.45-2.214.692l-.028.537c.235-.05.612-.11.807-.133.171-.022.251.019.24.253-.07 1.41-.138 2.82-.206 4.23-.016.323-.113.411-.458.493a82.91 82.91 0 0 0-.565.133l-.024.44a73.073 73.073 0 0 1 3.102-.35l.017-.438m1.853-4.4c.057-.188.147-.429.243-.56.085-.123.22-.2.588-.222a70.57 70.57 0 0 1 2.445-.095c-.928 1.882-1.88 3.78-2.852 5.699.31-.019.622-.035.932-.05a500.64 500.64 0 0 0 2.682-5.935l.007-.546a71.38 71.38 0 0 0-4.412.188c-.114.349-.214 1.475-.222 1.739.177-.005.354-.007.531-.01.02-.07.04-.138.058-.208m9.339 2.693c-.014-1.137-.65-1.98-2.224-2.032-.372-.013-.845.046-1.053.13.052-.557.101-1.116.15-1.673.925.017 1.85.051 2.774.105l-.008-.82a70.891 70.891 0 0 0-3.324-.112c-.098 1.074-.198 2.148-.298 3.223.27-.076.684-.188 1.221-.176 1.075.027 1.562.59 1.568 1.34.005.86-.6 1.296-1.531 1.274a4.793 4.793 0 0 1-1.66-.344l-.006.712c.365.185 1.025.345 1.844.367 1.44.038 2.565-.54 2.547-1.994M53.49 38.2c.752.086 1.323.582 1.4 2.84.072 2.102-.417 2.666-1.272 2.569-.855-.097-1.41-.73-1.455-2.918-.047-2.304.728-2.56 1.327-2.491m.112 5.952c1.705.196 2.576-.787 2.488-2.982-.084-2.08-.905-3.327-2.575-3.522-1.518-.174-2.59.707-2.558 3.008.033 2.198.993 3.311 2.645 3.496"/><path d="M45 84.817C23.044 84.817 5.183 66.955 5.183 45 5.183 23.044 23.044 5.183 45 5.183S84.818 23.044 84.818 45c0 21.955-17.862 39.817-39.818 39.817m0-80.52C22.556 4.296 4.296 22.555 4.296 45c0 22.444 18.26 40.704 40.704 40.704S85.704 67.444 85.704 45 67.444 4.296 45 4.296"/><path d="M45 88.522C21.001 88.522 1.478 69 1.478 45S21 1.478 45 1.478 88.522 21 88.522 45 69 88.522 45 88.522M45 0C20.187 0 0 20.187 0 45s20.187 45 45 45 45-20.187 45-45S69.813 0 45 0m73.313 22.474c-1.509-4.296-2.032-5.846-2.262-6.579-.231.754-.734 2.2-2.243 6.579h4.505zm-8.59 5.888v-.796l.46-.084c.42-.084.692-.272.902-.88l4.463-12.405h1.906l4.38 12.447c.21.608.419.754.837.838l.524.084v.796h-4.987v-.796l.985-.105c.44-.042.587-.167.587-.46 0-.168-.063-.42-.168-.713l-.963-2.787h-5.176l-.964 2.766a2.466 2.466 0 0 0-.146.733c0 .273.167.42.607.461l1.069.105v.796h-4.317zm20.975.273c-4.673 0-6.852-2.87-6.852-7.271 0-5.092 2.85-7.439 7.103-7.439 1.278 0 3.017.21 3.667.461.252.629.294 2.347.294 3.123l-.944.042-.188-.734c-.105-.399-.273-.86-.524-1.174-.335-.419-.88-.67-2.41-.67-3.499 0-4.923 2.62-4.923 6.307 0 4.295 1.948 6.307 4.86 6.307 1.216 0 2.243-.293 2.704-.901.167-.23.356-.587.481-.922l.21-.628.901.105c0 .397-.272 2.136-.46 2.744-.65.252-2.557.65-3.92.65m12.763 0c-4.673 0-6.852-2.87-6.852-7.271 0-5.092 2.849-7.439 7.103-7.439 1.278 0 3.017.21 3.667.461.251.629.293 2.347.293 3.123l-.943.042-.189-.734c-.105-.399-.272-.86-.524-1.174-.334-.419-.88-.67-2.41-.67-3.498 0-4.923 2.62-4.923 6.307 0 4.295 1.949 6.307 4.861 6.307 1.216 0 2.242-.293 2.703-.901.168-.23.356-.587.482-.922l.21-.628.9.105c0 .397-.271 2.136-.46 2.744-.65.252-2.557.65-3.918.65m13.787-6.161c-1.508-4.296-2.032-5.846-2.263-6.579-.23.754-.733 2.2-2.242 6.579h4.505zm-8.59 5.888v-.796l.46-.084c.42-.084.692-.272.901-.88l4.464-12.405h1.906l4.38 12.447c.209.608.419.754.838.838l.523.084v.796h-4.987v-.796l.985-.105c.44-.042.587-.167.587-.46 0-.168-.063-.42-.168-.713l-.964-2.787h-5.175l-.964 2.766a2.478 2.478 0 0 0-.147.733c0 .273.168.42.608.461l1.068.105v.796h-4.316zm18.67-1.047h1.047c1.09 0 2.138-.252 2.893-.65 1.655-.86 2.283-3.08 2.283-5.7 0-3.268-1.194-4.714-3.018-5.364-.523-.188-1.32-.356-2.66-.356h-1.383v11.273c0 .566.084.797.838.797zm-4.4.25.65-.083c.796-.125.942-.272.942-.922V16c0-.629-.126-.818-.922-.923l-.67-.083v-.797h4.61c2.346 0 3.708.19 4.61.524 1.864.713 3.52 2.6 3.52 6.182 0 3.29-.88 5.7-3.688 6.852-1.07.44-2.746.607-4.485.607h-4.568v-.796zm14.605.797v-.796l.628-.084c.797-.125.964-.251.964-.922V16.02c0-.649-.104-.816-.922-.943l-.67-.083v-.797h9.366c.105.42.21 1.53.21 3.102l-.964.063-.252-1.111c-.167-.796-.482-1.027-1.424-1.027h-3.374v5.28h4.505v1.07h-4.505v4.965c0 .629.147.796.817.796h3.164c.922 0 1.194-.272 1.488-1.32l.251-.963.943.042c0 1.215-.126 2.786-.252 3.268h-9.973zm11.986 0v-.796l.67-.084c.755-.105.901-.251.901-.943V16.021c0-.713-.167-.839-.943-.944l-.65-.083v-.797h4.15c2.765 6.852 3.541 8.968 3.96 10.12.419-1.13 1.257-3.226 4.19-10.12h4.002v.797l-.691.083c-.775.105-.9.315-.9.964V26.54c0 .65.146.818.858.922l.733.105v.796h-5.112v-.796l.67-.084c.755-.105.902-.251.902-.943V15.895c-.336.9-1.278 3.206-4.506 11.084H196.6c-2.975-7.71-3.814-9.743-4.358-11.105.02 1.509.042 8.444.042 10.519 0 .356 0 .65.146.817.105.125.335.23.86.293l.628.063v.796h-4.4zm17.958 0v-.796l.65-.084c.795-.125.942-.272.942-.922V15.98c0-.63-.147-.818-.901-.902l-.691-.083v-.797h5.133v.797l-.691.083c-.734.084-.88.273-.88.902v10.56c0 .65.146.86.88.943l.691.084v.796h-5.133zm14.164-5.888c-1.507-4.296-2.031-5.846-2.262-6.579-.23.754-.733 2.2-2.243 6.579h4.506zm-8.59 5.888v-.796l.461-.084c.42-.084.691-.272.9-.88l4.464-12.405h1.907l4.379 12.447c.21.608.42.754.839.838l.523.084v.796h-4.987v-.796l.985-.105c.44-.042.586-.167.586-.46 0-.168-.062-.42-.167-.713l-.964-2.787h-5.175l-.965 2.766a2.478 2.478 0 0 0-.146.733c0 .273.168.42.607.461l1.069.105v.796h-4.316zm-98.194 22.15h1.048c1.089 0 2.137-.251 2.891-.65 1.656-.858 2.284-3.08 2.284-5.699 0-3.268-1.194-4.714-3.017-5.364-.524-.188-1.32-.356-2.661-.356h-1.383v11.273c0 .566.083.796.838.796zm-4.4.252.65-.084c.796-.126.942-.273.942-.922v-10.56c0-.63-.126-.818-.922-.923l-.67-.084v-.796h4.61c2.346 0 3.708.189 4.61.524 1.864.713 3.52 2.599 3.52 6.181 0 3.29-.88 5.7-3.689 6.852-1.068.44-2.744.608-4.483.608h-4.568v-.796zm14.605.796v-.796l.65-.084c.796-.126.943-.272.943-.922V39.176c0-.628-.147-.817-.901-.9l-.692-.085v-.796h5.134v.796l-.692.084c-.733.084-.88.273-.88.901v10.56c0 .65.147.86.88.944l.692.084v.796h-5.134zm15.149-1.802c0 .65.126.817.985.817h.713c.817 0 1.508-.084 2.095-.293 1.257-.42 1.698-1.404 1.698-2.703 0-1.509-.734-2.62-2.725-2.766-.67-.063-1.257-.063-2.011-.063h-.755v5.008zm.776-5.993c.838 0 1.676-.063 2.053-.146 1.341-.336 2.054-1.383 2.054-2.578 0-1.32-.608-2.22-2.117-2.493-.545-.084-1.299-.105-1.906-.105h-.86v5.322h.776zm-4.316 6.998.67-.083c.776-.105.922-.294.922-.922v-10.56c0-.629-.126-.818-.922-.923l-.67-.084v-.796h5.112c1.404 0 2.326.105 3.039.294 1.361.377 2.241 1.32 2.241 2.975 0 1.656-.67 2.766-2.828 3.436 2.389.23 3.562 1.383 3.562 3.374 0 2.179-1.173 3.269-3.017 3.73-.944.23-2.075.356-3.206.356h-4.903v-.797zm12.97.797v-.796l.63-.084c.795-.126.963-.252.963-.922v-10.54c0-.65-.105-.817-.922-.943l-.67-.084v-.796h9.366c.104.42.21 1.53.21 3.102l-.964.063-.252-1.111c-.167-.797-.482-1.027-1.425-1.027h-3.373v5.28h4.505v1.069h-4.505v4.966c0 .629.146.796.817.796h3.164c.922 0 1.194-.272 1.488-1.32l.25-.963.944.042c0 1.214-.126 2.786-.252 3.268h-9.973zm11.966 0v-.796l.628-.084c.796-.126.964-.252.964-.922V39.197c0-.65-.146-.838-.9-.922l-.692-.084v-.796h5.133v.796l-.69.084c-.735.084-.881.273-.881.901v10.498c0 .629.083.838.817.838h3.206c.796 0 1.131-.23 1.403-1.278l.273-.984.943.042c0 1.299-.126 2.786-.251 3.268h-9.953zm11.504 0v-.796l.628-.084c.796-.126.964-.252.964-.922V39.197c0-.65-.146-.838-.9-.922l-.692-.084v-.796h5.134v.796l-.692.084c-.734.084-.88.273-.88.901v10.498c0 .629.083.838.817.838h3.206c.796 0 1.131-.23 1.403-1.278l.273-.984.943.042c0 1.299-.126 2.786-.251 3.268h-9.953zm11.504 0v-.796l.628-.084c.796-.126.964-.252.964-.922v-10.54c0-.65-.105-.817-.922-.943l-.67-.084v-.796h9.366c.105.42.21 1.53.21 3.102l-.964.063-.252-1.111c-.167-.797-.482-1.027-1.425-1.027h-3.373v5.28h4.505v1.069h-4.505v4.966c0 .629.146.796.817.796h3.164c.922 0 1.194-.272 1.488-1.32l.25-.963.944.042c0 1.214-.126 2.786-.252 3.268h-9.973zm24.704-5.888c-1.508-4.296-2.032-5.846-2.262-6.58-.23.755-.734 2.2-2.243 6.58h4.505zm-8.59 5.888v-.796l.46-.084c.42-.084.692-.272.901-.88l4.464-12.405h1.907l4.378 12.447c.21.608.42.754.839.838l.523.084v.796h-4.987v-.796l.985-.105c.44-.042.587-.168.587-.461 0-.168-.063-.419-.168-.713l-.963-2.786h-5.176l-.964 2.766a2.478 2.478 0 0 0-.146.733c0 .273.167.419.607.46l1.068.106v.796h-4.315zm19.111-7.313c.712 0 1.57-.125 2.116-.335.964-.398 1.53-1.278 1.53-2.66 0-1.154-.483-1.95-1.195-2.37-.524-.313-1.404-.46-2.41-.46h-1.32v5.825h1.279zm6.6 7.397c-1.53 0-2.158-.398-2.766-1.258-1.006-1.403-2.158-3.394-3.06-5.133-.25.02-.502.02-.753.02h-1.3v4.506c0 .629.147.817.901.9l.692.085v.796h-5.155v-.796l.67-.084c.755-.105.923-.252.923-.9V39.217c0-.65-.126-.838-.923-.943l-.67-.084v-.796h5.176c1.11 0 2.095.105 2.891.336 1.698.502 2.515 1.655 2.515 3.478 0 1.844-.943 3.038-2.62 3.625-.167.063-.335.104-.481.146 1.34 2.263 2.137 3.626 2.975 4.631.692.88 1.195 1.09 2.075 1.153v.796c-.126.042-.922.084-1.09.084zm4.107-.084v-.796l.691-.084c.755-.105.901-.272.901-.922V38.464h-2.304c-.964 0-1.236.21-1.404 1.005l-.251 1.174-.965-.063c.022-1.655.085-2.745.21-3.185h11.398c.126.44.23 1.53.23 3.185l-.942.063-.272-1.152c-.189-.817-.44-1.027-1.404-1.027h-2.326v11.294c0 .628.168.838.922.922l.691.084v.796h-5.175zm9.576 0v-.796l.65-.084c.796-.126.942-.272.942-.922V39.176c0-.628-.146-.817-.9-.9l-.692-.085v-.796h5.134v.796l-.691.084c-.734.084-.88.273-.88.901v10.56c0 .65.146.86.88.944l.691.084v.796h-5.134zM115.485 74.758l-4.38-12.447c-.209-.608-.398-.754-.838-.838l-.544-.084v-.796h5.028v.796l-.984.105c-.42.042-.587.189-.587.482 0 .168.042.419.147.712 2.745 7.963 3.29 9.597 3.54 10.414.252-.817.797-2.451 3.563-10.414.105-.314.147-.566.147-.712 0-.293-.168-.44-.608-.482l-1.006-.105v-.796h4.212v.796l-.482.084c-.44.084-.692.293-.902.88l-4.4 12.405h-1.906zm8.55 0v-.797l.628-.083c.796-.126.964-.252.964-.922v-10.54c0-.65-.105-.817-.922-.943l-.67-.084v-.796h9.365c.105.419.21 1.53.21 3.101l-.964.063-.251-1.11c-.168-.797-.482-1.027-1.425-1.027h-3.374v5.28h4.505v1.069h-4.505v4.966c0 .628.147.796.818.796h3.164c.922 0 1.194-.272 1.488-1.32l.25-.964.944.042c0 1.215-.126 2.786-.252 3.269h-9.973zm11.985 0v-.776l.65-.104c.818-.147.922-.273.922-.922v-10.54c0-.713-.167-.838-.942-.943l-.65-.084v-.796h3.877c5.699 9.22 6.83 11.022 7.018 11.399-.041-2.452-.041-7.145-.062-9.534 0-.356-.021-.566-.168-.713-.126-.146-.356-.21-.775-.272l-.692-.084v-.796h4.38v.796l-.65.084c-.775.105-.922.272-.922.922v12.363h-1.76c-6.475-10.728-7.313-12.09-7.501-12.447.042 1.488.042 8.36.042 10.435 0 .315 0 .608.125.796.126.189.378.273.965.357l.544.083v.776h-4.4zm15.235 0v-.797l.628-.083c.797-.126.964-.252.964-.922v-10.54c0-.65-.104-.817-.922-.943l-.67-.084v-.796h9.366c.105.419.21 1.53.21 3.101l-.964.063-.252-1.11c-.167-.797-.481-1.027-1.424-1.027h-3.374v5.28h4.505v1.069h-4.505v4.966c0 .628.147.796.817.796h3.164c.922 0 1.194-.272 1.488-1.32l.251-.964.943.042c0 1.215-.126 2.786-.251 3.269h-9.974zm11.797 0v-.839c6.16-8.758 7.438-10.581 8.654-12.258h-5.239c-.985 0-1.362.336-1.634 1.677l-.105.503-.943-.042c.042-1.258.168-2.577.336-3.206h10.078v.86c-5.846 8.36-7.711 11-8.633 12.257h6.035c1.005 0 1.362-.21 1.822-1.74l.168-.586.902.063c-.021.86-.147 2.62-.315 3.31h-11.126zm12.698 0v-.797l.65-.083c.797-.126.943-.273.943-.922V62.374c0-.629-.146-.817-.9-.901l-.692-.084v-.796h5.134v.796l-.692.084c-.734.084-.88.272-.88.901v10.56c0 .65.146.86.88.944l.692.083v.797h-5.134zm14.166-5.888c-1.509-4.296-2.033-5.846-2.263-6.58-.23.754-.734 2.2-2.243 6.58h4.506zm-8.591 5.888v-.797l.46-.083c.42-.084.692-.273.901-.88l4.464-12.405h1.907l4.379 12.447c.21.607.42.754.838.838l.524.083v.797h-4.987v-.797l.985-.104c.44-.042.586-.168.586-.461 0-.168-.063-.419-.167-.713l-.964-2.787h-5.176l-.964 2.766a2.478 2.478 0 0 0-.146.734c0 .272.167.419.607.46l1.069.105v.797h-4.316z"/></g></svg>