<?xml version="1.0" standalone="no"?>
<!DOCTYPE svg PUBLIC "-//W3C//DTD SVG 20010904//EN"
 "http://www.w3.org/TR/2001/REC-SVG-20010904/DTD/svg10.dtd">
<svg version="1.0" xmlns="http://www.w3.org/2000/svg"
 width="1026.000000pt" height="1026.000000pt" viewBox="0 0 1026.000000 1026.000000"
 preserveAspectRatio="xMidYMid meet">

<g transform="translate(0.000000,1026.000000) scale(0.100000,-0.100000)"
fill="#000000" stroke="none">
<path d="M380 8550 l0 -1330 1330 0 1330 0 0 1330 0 1330 -1330 0 -1330 0 0
-1330z m2280 0 l0 -950 -950 0 -950 0 0 950 0 950 950 0 950 0 0 -950z"/>
<path d="M1140 8550 l0 -570 570 0 570 0 0 570 0 570 -570 0 -570 0 0 -570z"/>
<path d="M4940 9690 l0 -190 190 0 190 0 0 -190 0 -190 380 0 380 0 0 -190 0
-190 -570 0 -570 0 0 190 0 190 -190 0 -190 0 0 190 0 190 -190 0 -190 0 0
-190 0 -190 190 0 190 0 0 -190 0 -190 -570 0 -570 0 0 -190 0 -190 190 0 190
0 0 -190 0 -190 -190 0 -190 0 0 -380 0 -380 190 0 190 0 0 -190 0 -190 -570
0 -570 0 0 -190 0 -190 -190 0 -190 0 0 190 0 190 -950 0 -950 0 0 -380 0
-380 380 0 380 0 0 -380 0 -380 -190 0 -190 0 0 190 0 190 -190 0 -190 0 0
-190 0 -190 190 0 190 0 0 -190 0 -190 -190 0 -190 0 0 -760 0 -760 190 0 190
0 0 570 0 570 380 0 380 0 0 -190 0 -190 -190 0 -190 0 0 -380 0 -380 190 0
190 0 0 380 0 380 190 0 190 0 0 570 0 570 380 0 380 0 0 -190 0 -190 -190 0
-190 0 0 -190 0 -190 190 0 190 0 0 -190 0 -190 190 0 190 0 0 -190 0 -190
-570 0 -570 0 0 -190 0 -190 570 0 570 0 0 190 0 190 190 0 190 0 0 -570 0
-570 190 0 190 0 0 -190 0 -190 -190 0 -190 0 0 -950 0 -950 190 0 190 0 0
190 0 190 190 0 190 0 0 570 0 570 -190 0 -190 0 0 190 0 190 760 0 760 0 0
-380 0 -380 -190 0 -190 0 0 190 0 190 -190 0 -190 0 0 -190 0 -190 190 0 190
0 0 -190 0 -190 -190 0 -190 0 0 -380 0 -380 760 0 760 0 0 190 0 190 570 0
570 0 0 190 0 190 -380 0 -380 0 0 190 0 190 -380 0 -380 0 0 190 0 190 760 0
760 0 0 -190 0 -190 190 0 190 0 0 190 0 190 190 0 190 0 0 -190 0 -190 190 0
190 0 0 -190 0 -190 -380 0 -380 0 0 -380 0 -380 1140 0 1140 0 0 760 0 760
-190 0 -190 0 0 190 0 190 190 0 190 0 0 380 0 380 -570 0 -570 0 0 190 0 190
190 0 190 0 0 190 0 190 -190 0 -190 0 0 -190 0 -190 -190 0 -190 0 0 380 0
380 190 0 190 0 0 380 0 380 190 0 190 0 0 -380 0 -380 190 0 190 0 0 -190 0
-190 190 0 190 0 0 380 0 380 -190 0 -190 0 0 190 0 190 190 0 190 0 0 570 0
570 -190 0 -190 0 0 380 0 380 -190 0 -190 0 0 -570 0 -570 190 0 190 0 0
-190 0 -190 -380 0 -380 0 0 -190 0 -190 -190 0 -190 0 0 190 0 190 -190 0
-190 0 0 190 0 190 380 0 380 0 0 190 0 190 -380 0 -380 0 0 380 0 380 -190 0
-190 0 0 -380 0 -380 -190 0 -190 0 0 380 0 380 -190 0 -190 0 0 380 0 380
-190 0 -190 0 0 190 0 190 190 0 190 0 0 190 0 190 -190 0 -190 0 0 190 0 190
190 0 190 0 0 380 0 380 -570 0 -570 0 0 190 0 190 -380 0 -380 0 0 -190z m0
-1140 l0 -190 190 0 190 0 0 -190 0 -190 -190 0 -190 0 0 -380 0 -380 -190 0
-190 0 0 190 0 190 -190 0 -190 0 0 -190 0 -190 -190 0 -190 0 0 190 0 190
190 0 190 0 0 380 0 380 190 0 190 0 0 190 0 190 190 0 190 0 0 -190z m1520
-380 l0 -190 -380 0 -380 0 0 190 0 190 380 0 380 0 0 -190z m-760 -760 l0
-190 190 0 190 0 0 190 0 190 190 0 190 0 0 -380 0 -380 -570 0 -570 0 0 -190
0 -190 570 0 570 0 0 -190 0 -190 -380 0 -380 0 0 -380 0 -380 -380 0 -380 0
0 190 0 190 -190 0 -190 0 0 -190 0 -190 -950 0 -950 0 0 190 0 190 -190 0
-190 0 0 190 0 190 190 0 190 0 0 190 0 190 190 0 190 0 0 -190 0 -190 -190 0
-190 0 0 -190 0 -190 570 0 570 0 0 190 0 190 -190 0 -190 0 0 190 0 190 380
0 380 0 0 190 0 190 570 0 570 0 0 380 0 380 190 0 190 0 0 -190z m-4180
-1140 l0 -190 190 0 190 0 0 -380 0 -380 -190 0 -190 0 0 -190 0 -190 -190 0
-190 0 0 190 0 190 190 0 190 0 0 380 0 380 -190 0 -190 0 0 190 0 190 190 0
190 0 0 -190z m5320 -950 l0 -380 -190 0 -190 0 0 -190 0 -190 190 0 190 0 0
-380 0 -380 -950 0 -950 0 0 190 0 190 -190 0 -190 0 0 -190 0 -190 -570 0
-570 0 0 190 0 190 -190 0 -190 0 0 190 0 190 -190 0 -190 0 0 190 0 190 190
0 190 0 0 -190 0 -190 190 0 190 0 0 190 0 190 190 0 190 0 0 -190 0 -190 190
0 190 0 0 190 0 190 190 0 190 0 0 -190 0 -190 190 0 190 0 0 190 0 190 380 0
380 0 0 -380 0 -380 380 0 380 0 0 190 0 190 -190 0 -190 0 0 190 0 190 190 0
190 0 0 380 0 380 190 0 190 0 0 -380z m760 190 l0 -190 -190 0 -190 0 0 190
0 190 190 0 190 0 0 -190z m0 -760 l0 -190 -190 0 -190 0 0 190 0 190 190 0
190 0 0 -190z m760 0 l0 -190 -190 0 -190 0 0 190 0 190 190 0 190 0 0 -190z
m-760 -760 l0 -190 -190 0 -190 0 0 190 0 190 190 0 190 0 0 -190z m-3040
-760 l0 -190 380 0 380 0 0 190 0 190 190 0 190 0 0 -190 0 -190 380 0 380 0
0 -380 0 -380 -190 0 -190 0 0 190 0 190 -190 0 -190 0 0 -190 0 -190 -190 0
-190 0 0 190 0 190 -380 0 -380 0 0 190 0 190 -380 0 -380 0 0 190 0 190 380
0 380 0 0 -190z m3420 -380 l0 -570 -570 0 -570 0 0 570 0 570 570 0 570 0 0
-570z m760 0 l0 -190 190 0 190 0 0 -190 0 -190 -190 0 -190 0 0 -190 0 -190
-190 0 -190 0 0 190 0 190 190 0 190 0 0 190 0 190 -190 0 -190 0 0 190 0 190
190 0 190 0 0 -190z m760 -1710 l0 -380 -380 0 -380 0 0 190 0 190 190 0 190
0 0 190 0 190 190 0 190 0 0 -380z m-3800 -190 l0 -190 -380 0 -380 0 0 190 0
190 380 0 380 0 0 -190z"/>
<path d="M4560 8170 l0 -190 190 0 190 0 0 190 0 190 -190 0 -190 0 0 -190z"/>
<path d="M4180 6080 l0 -380 190 0 190 0 0 190 0 190 190 0 190 0 0 190 0 190
-380 0 -380 0 0 -380z"/>
<path d="M3420 4370 l0 -190 190 0 190 0 0 190 0 190 -190 0 -190 0 0 -190z"/>
<path d="M4940 4370 l0 -190 190 0 190 0 0 190 0 190 -190 0 -190 0 0 -190z"/>
<path d="M5320 2850 l0 -190 190 0 190 0 0 190 0 190 -190 0 -190 0 0 -190z"/>
<path d="M7220 2850 l0 -190 190 0 190 0 0 190 0 190 -190 0 -190 0 0 -190z"/>
<path d="M7220 8550 l0 -1330 1330 0 1330 0 0 1330 0 1330 -1330 0 -1330 0 0
-1330z m2280 0 l0 -950 -950 0 -950 0 0 950 0 950 950 0 950 0 0 -950z"/>
<path d="M7980 8550 l0 -570 570 0 570 0 0 570 0 570 -570 0 -570 0 0 -570z"/>
<path d="M3420 9310 l0 -190 190 0 190 0 0 190 0 190 -190 0 -190 0 0 -190z"/>
<path d="M8360 6650 l0 -190 190 0 190 0 0 190 0 190 -190 0 -190 0 0 -190z"/>
<path d="M380 1710 l0 -1330 1330 0 1330 0 0 1330 0 1330 -1330 0 -1330 0 0
-1330z m2280 0 l0 -950 -950 0 -950 0 0 950 0 950 950 0 950 0 0 -950z"/>
<path d="M1140 1710 l0 -570 570 0 570 0 0 570 0 570 -570 0 -570 0 0 -570z"/>
</g>
</svg>
