<?xml version="1.0" standalone="no"?>
<!DOCTYPE svg PUBLIC "-//W3C//DTD SVG 20010904//EN"
 "http://www.w3.org/TR/2001/REC-SVG-20010904/DTD/svg10.dtd">
<svg version="1.0" xmlns="http://www.w3.org/2000/svg"
 width="1508.000000pt" height="1500.000000pt" viewBox="0 0 1508.000000 1500.000000"
 preserveAspectRatio="xMidYMid meet">

<g transform="translate(0.000000,1500.000000) scale(0.100000,-0.100000)"
fill="#000000" stroke="none">
<path d="M555 14901 c-217 -53 -386 -223 -446 -446 -11 -41 -14 -931 -16
-5228 l-3 -5177 7435 0 7435 0 0 5148 c-1 5665 4 5233 -64 5375 -84 175 -226
289 -413 331 -66 15 -648 16 -6965 15 -6506 0 -6897 -1 -6963 -18z m4349
-2062 c22 -18 26 -28 26 -75 0 -37 -8 -73 -24 -107 -13 -29 -27 -63 -31 -77
-4 -13 -22 -56 -40 -95 -18 -38 -52 -115 -75 -170 -119 -282 -415 -975 -431
-1010 -10 -22 -30 -69 -44 -105 -15 -36 -37 -87 -50 -115 -12 -27 -86 -201
-165 -385 -190 -447 -318 -746 -341 -797 -10 -23 -19 -44 -19 -47 0 -2 -13
-33 -29 -68 -16 -35 -41 -92 -56 -128 -14 -36 -34 -83 -44 -105 -44 -95 -71
-166 -71 -183 0 -42 1 -42 551 -42 l527 0 16 25 c14 22 16 82 16 536 0 561 -2
546 60 583 25 14 106 16 842 16 754 0 816 -1 848 -18 71 -35 70 -26 70 -597 0
-303 4 -516 10 -525 8 -12 52 -16 259 -20 l251 -5 32 -33 33 -32 3 -703 c2
-386 0 -716 -3 -734 -3 -17 -20 -45 -37 -62 l-32 -31 -230 0 c-166 0 -238 -4
-256 -13 l-25 -13 -5 -774 c-5 -747 -6 -776 -25 -807 -39 -66 0 -63 -884 -63
-858 0 -841 -1 -886 50 -20 22 -20 40 -25 799 -4 570 -8 781 -17 796 -11 20
-25 20 -1575 25 -1718 5 -1590 0 -1622 67 -14 30 -16 102 -16 606 0 462 3 581
14 617 16 51 154 380 166 395 4 6 11 21 15 35 4 14 20 52 35 85 15 33 80 183
144 333 64 150 127 296 140 325 13 29 77 176 141 327 64 151 130 303 146 337
16 34 29 66 29 70 0 4 6 20 14 35 8 15 51 114 96 220 45 106 90 211 100 233
10 22 32 71 49 108 17 38 31 74 31 81 0 6 4 16 9 21 5 6 45 97 90 202 45 106
92 217 106 247 14 30 25 57 25 60 0 2 15 38 34 78 19 40 71 160 115 267 45
106 86 200 91 209 4 10 20 43 35 74 16 35 38 64 58 77 32 20 41 21 918 21 882
0 886 0 913 -21z m4640 2 c16 -11 35 -30 42 -43 11 -18 13 -265 14 -1219 0
-1328 -3 -1266 61 -1197 19 20 54 67 79 103 25 37 51 73 58 80 6 8 12 16 12
20 0 3 5 11 10 18 16 19 87 119 278 391 97 138 179 253 184 254 4 2 8 8 8 13
0 5 37 61 83 124 45 62 114 159 152 214 39 55 102 145 140 200 39 55 97 138
130 186 33 47 66 92 73 100 6 7 12 18 12 23 0 6 4 12 8 14 4 2 28 32 53 68
304 435 427 608 444 623 54 48 23 47 1015 47 937 0 960 -1 982 -34 11 -16 10
-70 -2 -102 -6 -15 -74 -115 -152 -223 -78 -108 -203 -281 -277 -385 -75 -103
-193 -267 -263 -365 -147 -204 -132 -183 -239 -331 -45 -63 -102 -142 -126
-175 -24 -33 -62 -87 -85 -120 -23 -33 -85 -118 -137 -190 -52 -71 -107 -148
-123 -170 -16 -22 -97 -135 -181 -251 -84 -116 -215 -299 -292 -405 -156 -215
-175 -244 -175 -262 0 -7 25 -55 55 -106 30 -51 55 -95 55 -97 0 -2 32 -55 70
-119 39 -64 70 -118 70 -120 0 -2 38 -67 85 -145 47 -78 85 -143 85 -145 0 -2
24 -44 53 -92 29 -48 56 -95 60 -103 4 -8 11 -22 17 -30 21 -33 150 -251 150
-255 0 -2 32 -56 70 -120 39 -64 70 -118 70 -120 0 -2 31 -56 69 -119 38 -62
81 -136 96 -162 33 -59 112 -194 212 -362 40 -68 73 -125 73 -127 0 -3 18 -34
39 -69 22 -35 75 -124 117 -198 203 -348 281 -483 556 -952 139 -239 147 -263
104 -313 l-24 -28 -934 0 c-866 0 -935 1 -965 17 -19 11 -49 46 -77 93 -25 42
-46 78 -46 81 0 2 -10 21 -23 42 -13 20 -40 68 -61 105 -20 37 -46 84 -57 104
-12 20 -32 57 -46 82 -13 25 -32 60 -42 76 -10 17 -33 57 -51 90 -19 33 -44
78 -57 100 -12 22 -27 49 -33 60 -5 11 -28 52 -50 90 -23 39 -48 84 -56 100
-8 17 -24 46 -36 65 -11 19 -75 132 -141 250 -66 118 -123 220 -127 225 -7 10
-35 59 -93 165 -51 94 -68 124 -89 160 -11 19 -36 64 -55 99 -19 35 -43 78
-54 95 -10 17 -28 51 -41 76 -13 25 -26 47 -30 50 -4 3 -11 17 -17 30 -6 14
-24 48 -40 75 -16 28 -42 73 -56 100 -38 69 -53 85 -76 77 -10 -4 -53 -59 -95
-122 -41 -63 -139 -212 -217 -330 l-142 -215 -5 -880 c-5 -852 -6 -881 -25
-909 -39 -58 -14 -56 -886 -56 -877 0 -845 -2 -886 58 -17 26 -18 163 -21
3335 -2 3629 -7 3351 56 3389 25 16 93 17 852 18 799 0 826 -1 854 -19z"/>
<path d="M420 2259 c0 -659 2 -761 16 -818 62 -252 266 -378 668 -412 113 -10
179 -10 303 -1 410 31 612 150 691 407 14 43 16 159 19 790 2 407 1 750 -2
763 -5 21 -10 23 -68 20 l-62 -3 -5 -770 c-5 -729 -6 -772 -24 -815 -59 -139
-158 -211 -360 -261 -116 -29 -452 -38 -583 -15 -223 39 -352 118 -417 256
l-31 65 -5 770 -5 770 -67 3 -68 3 0 -752z"/>
<path d="M2777 3004 c-4 -4 -7 -445 -7 -980 0 -937 1 -972 18 -977 29 -7 1335
-9 1355 -2 13 6 17 19 17 56 l0 49 -622 2 -623 3 -5 925 -5 925 -60 3 c-34 2
-64 0 -68 -4z"/>
<path d="M3864 2996 c-3 -8 -4 -31 -2 -52 l3 -39 428 -3 427 -2 0 -925 c0
-815 2 -925 15 -926 8 -1 36 -2 63 -2 l47 -1 3 927 2 927 423 2 422 3 3 53 3
52 -916 0 c-774 0 -916 -2 -921 -14z"/>
<path d="M6086 2994 c-10 -26 -7 -1918 3 -1933 6 -9 28 -16 58 -17 91 -3 83
-45 83 412 l0 404 432 -2 432 -3 29 -40 c33 -46 166 -233 185 -261 24 -36 132
-189 139 -199 5 -5 55 -76 112 -157 56 -82 106 -148 109 -149 82 -7 142 -4
142 7 0 7 -30 56 -67 108 -38 52 -99 139 -138 195 -38 55 -90 129 -115 164
-25 36 -52 75 -60 87 -8 13 -41 58 -72 101 -87 119 -111 159 -96 163 7 2 47
11 88 21 160 37 289 125 354 241 59 105 83 268 62 412 -28 184 -107 294 -266
370 -169 80 -286 92 -920 92 -436 0 -489 -2 -494 -16z m1206 -121 c42 -12 96
-31 120 -42 96 -43 174 -140 204 -255 28 -103 12 -293 -31 -376 -29 -56 -106
-129 -173 -163 -127 -66 -160 -70 -699 -74 l-483 -4 0 471 0 471 493 -3 c467
-4 496 -5 569 -25z"/>
<path d="M8863 2998 c-8 -13 -33 -74 -237 -583 -53 -132 -100 -249 -105 -260
-16 -37 -32 -78 -163 -405 -71 -179 -135 -338 -143 -355 -33 -69 -135 -337
-130 -344 3 -6 75 -7 116 -2 6 1 53 107 89 201 55 142 152 376 162 387 15 19
1201 19 1216 1 5 -7 26 -53 47 -103 20 -49 41 -99 46 -110 5 -11 40 -98 79
-194 38 -96 74 -178 80 -181 6 -4 34 -6 63 -6 60 2 62 8 29 91 -47 118 -213
530 -243 600 -4 11 -22 56 -39 100 -18 44 -47 116 -65 160 -18 44 -50 123 -70
175 -20 52 -43 109 -50 125 -33 76 -100 244 -155 385 -33 85 -65 164 -70 175
-5 11 -19 45 -31 75 -11 30 -25 61 -31 67 -15 18 -383 18 -395 1z m320 -160
c14 -35 47 -115 72 -178 26 -63 58 -139 71 -168 13 -29 24 -55 24 -58 0 -8 83
-210 116 -282 13 -29 24 -55 24 -58 0 -3 6 -20 14 -37 8 -18 31 -72 51 -122
21 -49 45 -109 55 -132 16 -36 16 -42 3 -47 -20 -8 -1087 -8 -1107 0 -12 5
-14 10 -6 19 5 6 21 41 34 76 13 35 54 136 90 224 37 88 98 234 135 325 37 91
99 240 137 332 l69 167 96 1 96 0 26 -62z"/>
<path d="M10304 2996 c-19 -14 -19 -37 -22 -957 -2 -834 -1 -945 13 -966 l15
-23 324 0 c258 0 326 3 335 13 7 9 12 129 13 378 l3 364 298 3 297 2 0 -363
c0 -344 1 -365 19 -381 17 -15 50 -17 337 -16 215 0 322 4 331 11 11 9 13 186
13 964 0 909 -1 953 -18 968 -16 15 -54 17 -328 17 -264 0 -313 -2 -332 -16
l-22 -15 0 -355 0 -354 -297 2 -298 3 -3 355 c-2 320 -4 356 -19 368 -26 19
-632 17 -659 -2z"/>
<path d="M12548 2999 c-17 -9 -18 -66 -18 -967 0 -732 3 -961 12 -970 16 -16
1098 -17 1215 -2 167 22 332 69 438 123 176 91 302 239 334 395 14 67 15 839
1 902 -63 285 -366 477 -820 519 -150 14 -1139 14 -1162 0z m1148 -476 c49
-26 98 -73 122 -117 15 -27 17 -71 20 -350 3 -356 -1 -391 -61 -458 -70 -78
-147 -98 -382 -98 -128 0 -164 3 -168 14 -8 20 -9 1000 -1 1020 6 16 23 17
218 14 194 -3 214 -5 252 -25z"/>
</g>
</svg>
