<?xml version="1.0" standalone="no"?>
<!DOCTYPE svg PUBLIC "-//W3C//DTD SVG 20010904//EN"
 "http://www.w3.org/TR/2001/REC-SVG-20010904/DTD/svg10.dtd">
<svg version="1.0" xmlns="http://www.w3.org/2000/svg"
 width="2000.000000pt" height="2457.000000pt" viewBox="0 0 2000.000000 2457.000000"
 preserveAspectRatio="xMidYMid meet">

<g transform="translate(0.000000,2457.000000) scale(0.100000,-0.100000)"
fill="#000000" stroke="none">
<path d="M399 24360 c-111 -4 -161 -9 -173 -19 -15 -12 -16 -699 -16 -9515 0
-5225 3 -10639 7 -12031 l6 -2529 23 -23 23 -23 9731 0 9731 0 24 25 25 24 0
12016 0 12016 -23 23 -24 24 -2594 6 c-3114 9 -16519 13 -16740 6z m15511
-9410 c52 -5 142 -13 200 -19 169 -16 364 -31 535 -41 139 -8 175 -14 273 -44
62 -20 152 -43 200 -51 125 -23 390 -110 502 -165 52 -26 106 -51 120 -55 14
-4 30 -11 35 -15 6 -4 42 -25 80 -45 39 -21 88 -50 109 -64 21 -14 46 -30 55
-36 17 -11 155 -114 256 -190 80 -62 195 -174 265 -260 55 -68 153 -201 177
-241 75 -123 109 -184 148 -269 55 -117 150 -374 160 -431 4 -21 25 -114 46
-206 50 -221 63 -365 64 -713 0 -312 -14 -517 -46 -655 -11 -47 -31 -141 -44
-210 -36 -183 -44 -214 -87 -335 -54 -149 -107 -268 -183 -406 -34 -64 -66
-127 -70 -140 -4 -13 -16 -35 -27 -49 -10 -14 -35 -50 -55 -80 -20 -30 -57
-81 -82 -112 -25 -31 -62 -78 -81 -103 -131 -179 -478 -467 -666 -554 -23 -11
-77 -39 -120 -64 -44 -24 -97 -50 -119 -57 -22 -7 -81 -32 -132 -56 -50 -23
-106 -45 -125 -49 -18 -4 -98 -28 -178 -52 -80 -24 -174 -50 -210 -58 -36 -7
-114 -25 -175 -39 -154 -36 -276 -53 -525 -71 -118 -9 -260 -23 -315 -32 -73
-11 -207 -17 -496 -20 -343 -4 -408 -2 -485 12 -52 10 -186 21 -319 26 -319
13 -586 33 -610 46 -11 6 -28 20 -38 31 -17 18 -18 154 -18 2840 0 3085 -4
2876 57 2900 105 41 590 85 1129 102 138 4 288 13 335 19 166 22 313 25 460
11z m-12660 -10 c41 -6 122 -15 180 -20 404 -38 411 -39 573 -84 89 -24 177
-47 196 -51 47 -10 310 -116 353 -143 19 -12 38 -22 41 -22 8 0 100 -66 198
-141 86 -66 197 -180 254 -262 106 -152 172 -306 242 -567 27 -102 28 -112 28
-365 0 -281 1 -271 -66 -490 -35 -114 -82 -226 -114 -270 -12 -16 -34 -51 -49
-78 -15 -26 -76 -105 -136 -176 -135 -159 -229 -244 -335 -302 -22 -12 -65
-38 -95 -59 -30 -20 -81 -48 -112 -63 -72 -32 -85 -63 -44 -106 15 -16 39 -34
54 -42 111 -57 221 -146 282 -229 14 -18 34 -45 46 -59 87 -109 214 -353 249
-481 7 -25 32 -99 55 -164 22 -66 59 -199 81 -295 22 -97 47 -194 55 -215 8
-21 29 -98 45 -170 17 -72 41 -162 55 -200 13 -38 31 -103 39 -145 9 -42 33
-131 55 -197 22 -67 49 -161 59 -210 21 -99 50 -172 75 -193 20 -17 21 -75 1
-94 -22 -23 -215 -29 -795 -25 -623 4 -577 -7 -599 134 -5 34 -24 95 -41 135
-49 116 -157 477 -174 581 -9 52 -33 157 -55 234 -22 76 -45 168 -51 204 -6
36 -19 94 -30 130 -10 36 -33 117 -50 180 -32 122 -137 351 -193 425 -86 114
-248 225 -362 249 -218 45 -638 44 -696 -3 -20 -16 -20 -20 -19 -721 1 -388 3
-883 5 -1102 l3 -396 -25 -24 -25 -23 -621 0 c-637 0 -679 2 -689 38 -2 7 -1
1295 2 2862 5 2740 6 2852 23 2879 10 15 34 34 53 42 46 19 289 37 932 70 62
3 143 11 180 19 81 16 845 20 962 5z m9967 -49 c21 -2 43 -32 43 -58 0 -14
-20 -89 -45 -167 -64 -202 -132 -457 -170 -636 -12 -58 -38 -161 -57 -230 -75
-265 -100 -360 -134 -515 -20 -88 -51 -209 -70 -270 -18 -60 -40 -141 -49
-180 -9 -38 -34 -135 -55 -215 -21 -80 -46 -181 -56 -225 -9 -44 -34 -141 -55
-215 -21 -74 -45 -166 -53 -205 -9 -38 -36 -142 -60 -230 -40 -148 -101 -387
-149 -580 -10 -44 -30 -118 -43 -165 -13 -47 -38 -141 -55 -210 -17 -69 -47
-186 -65 -260 -19 -74 -46 -182 -61 -240 -14 -58 -40 -153 -58 -212 -18 -58
-41 -139 -50 -180 -64 -287 -134 -565 -174 -692 l-46 -149 -42 -19 c-40 -18
-76 -19 -695 -16 -508 2 -658 6 -675 16 -30 17 -53 63 -53 104 0 18 -9 65 -20
103 -11 39 -32 131 -45 205 -14 74 -32 159 -40 190 -8 30 -30 152 -50 270 -19
118 -47 271 -60 340 -56 279 -65 329 -80 427 -8 55 -30 162 -49 236 -19 74
-44 199 -56 278 -12 79 -37 207 -55 284 -19 77 -43 212 -55 299 -11 87 -22
162 -24 165 -9 14 -76 364 -86 446 -6 50 -22 155 -35 235 -13 80 -38 235 -55
345 -42 274 -40 264 -52 291 -6 13 -17 24 -24 24 -22 0 -30 -46 -44 -250 -6
-91 -24 -235 -40 -320 -16 -85 -45 -249 -65 -365 -20 -115 -43 -235 -50 -265
-8 -30 -30 -134 -50 -230 -20 -96 -49 -227 -65 -290 -16 -63 -38 -167 -50
-230 -12 -63 -41 -198 -65 -300 -73 -315 -125 -549 -175 -805 -12 -60 -31
-137 -41 -170 -10 -33 -28 -118 -39 -190 -11 -71 -38 -202 -59 -290 -22 -88
-44 -191 -51 -230 -6 -38 -20 -116 -31 -173 -10 -57 -19 -105 -19 -108 0 -3
-19 -14 -42 -24 -41 -19 -73 -20 -709 -20 -462 0 -676 3 -698 11 -34 12 -61
53 -61 92 0 14 -11 62 -24 108 -13 46 -38 147 -55 224 -18 77 -45 187 -62 245
-17 58 -37 150 -45 205 -17 113 -28 159 -74 330 -17 66 -40 163 -50 215 -9 52
-36 163 -58 245 -22 83 -45 184 -52 225 -13 88 -32 166 -65 270 -13 41 -31
116 -40 165 -9 50 -32 151 -52 225 -19 74 -46 184 -59 245 -13 60 -37 160 -54
220 -16 61 -37 151 -45 200 -9 50 -26 128 -39 175 -14 47 -36 139 -51 205 -14
66 -50 221 -80 345 -129 543 -156 659 -170 729 -8 40 -17 77 -20 81 -8 14 -74
285 -80 335 -4 28 -27 118 -50 201 -24 83 -49 187 -55 230 -17 116 -39 202
-61 245 -26 51 -24 67 9 82 37 16 1289 24 1345 7 46 -14 63 -39 71 -111 4 -31
13 -76 21 -101 7 -25 16 -76 20 -114 9 -91 38 -253 69 -389 13 -60 30 -148 36
-195 12 -90 57 -333 90 -485 11 -49 24 -124 30 -165 12 -95 58 -345 70 -385 5
-16 21 -104 35 -195 14 -91 27 -171 30 -179 3 -7 12 -59 21 -115 8 -55 21
-126 29 -156 8 -30 23 -118 35 -196 11 -78 35 -215 54 -305 19 -90 39 -202 45
-249 18 -139 56 -353 85 -480 15 -65 31 -223 40 -396 7 -137 38 -184 69 -106
8 20 18 57 22 82 4 25 20 104 36 175 17 72 39 186 49 255 10 69 26 175 35 235
9 61 27 157 41 215 31 129 68 313 88 440 9 52 24 127 35 165 21 77 40 171 72
345 11 63 29 149 39 190 10 41 35 165 55 275 20 110 47 242 61 293 14 51 36
154 49 230 13 75 33 175 44 222 10 47 29 139 41 205 11 66 39 197 60 290 22
94 46 213 55 265 9 52 23 131 31 175 9 44 22 113 30 154 7 40 18 79 25 87 26
31 89 34 735 34 615 0 653 -1 674 -18 18 -15 25 -36 36 -113 15 -112 57 -335
79 -417 8 -32 28 -144 45 -248 17 -104 41 -229 54 -279 14 -49 32 -148 40
-219 9 -72 34 -200 55 -285 22 -86 44 -199 51 -251 7 -52 29 -180 51 -283 21
-104 56 -295 78 -425 22 -130 47 -259 56 -287 8 -27 24 -120 35 -205 18 -145
76 -475 85 -490 3 -4 11 -83 20 -176 31 -338 68 -509 109 -509 44 0 76 106 96
315 18 183 47 377 74 490 14 58 39 195 56 305 17 110 33 209 35 220 2 11 16
72 29 135 14 63 34 189 46 279 11 90 31 200 44 245 30 99 38 140 71 331 15 83
37 193 50 245 13 52 33 155 45 229 11 74 38 209 59 300 22 91 42 189 46 216
13 95 36 216 65 331 16 64 39 184 50 267 35 259 33 248 61 269 14 11 50 23 80
27 39 6 1133 7 1226 2z"/>
<path d="M15573 13920 c-201 -11 -225 -15 -259 -51 l-29 -30 0 -1872 c0 -2052
-4 -1915 58 -1945 22 -10 104 -14 350 -15 339 -2 372 1 547 48 47 13 135 33
195 45 108 21 148 37 395 158 259 127 490 380 656 717 77 158 102 232 153 467
97 442 92 845 -15 1276 -28 116 -49 172 -96 267 -109 218 -185 328 -324 470
-176 180 -368 291 -654 379 -283 87 -528 109 -977 86z"/>
<path d="M2645 13963 c-52 -11 -166 -57 -180 -73 -14 -16 -16 -96 -16 -790 0
-666 1 -775 14 -787 24 -25 177 -35 427 -30 230 5 272 10 451 51 114 27 275
109 402 205 76 57 152 180 206 335 l45 131 1 155 c0 175 -5 197 -78 350 -46
96 -121 201 -180 253 -18 15 -86 54 -152 87 -127 61 -260 96 -405 105 -103 7
-513 13 -535 8z"/>
</g>
</svg>
